# xmcd
#
# Track frame offsets:
#	150
#	13080
#	28880
#	46780
#	68780
#	84140
#	102750
#	124762
#	141372
#	154252
#
# Disc length: 2227 seconds
#
# Revision: 0
# Processed by: cddbd v1.4PL0 Copyright (c) Steve Scherf et al.
# Submitted via: dBpowerAMP V4.0
#
DISCID=7c08b10a
DTITLE=Un zoo  - La nuit
DYEAR=1900
DGENRE=
TTITLE0=un zoo la nuit
TTITLE1=Pool room
TTITLE2=Retour au lorf
TTITLE3=Listen to music
TTITLE4=Peep show
TTITLE5=Lost in hurricane
TTITLE6=Musique de marcel
TTITLE7=Variations
TTITLE8=Nangkok paradise
TTITLE9=Rituel
EXTD=
EXTT0=
EXTT1=
EXTT2=
EXTT3=
EXTT4=
EXTT5=
EXTT6=
EXTT7=
EXTT8=
EXTT9=
PLAYORDER=
